<mxfile host="app.diagrams.net" agent="Mozilla/5.0 (X11; Linux x86_64) AppleWebKit/537.36 (KHTML, like Gecko) Chrome/136.0.0.0 Safari/537.36" version="27.1.5">
  <diagram id="R2lEEEUBdFMjLlhIrx00" name="Page-1">
    <mxGraphModel dx="2467" dy="968" grid="1" gridSize="10" guides="1" tooltips="1" connect="1" arrows="1" fold="1" page="1" pageScale="1" pageWidth="850" pageHeight="1100" math="0" shadow="0" extFonts="Permanent Marker^https://fonts.googleapis.com/css?family=Permanent+Marker">
      <root>
        <mxCell id="0" />
        <mxCell id="1" parent="0" />
        <mxCell id="7iq8bq_ekVzATumu0T5j-15" style="edgeStyle=orthogonalEdgeStyle;rounded=0;orthogonalLoop=1;jettySize=auto;html=1;entryX=0.5;entryY=0;entryDx=0;entryDy=0;strokeWidth=3;" edge="1" parent="1" source="7iq8bq_ekVzATumu0T5j-1">
          <mxGeometry relative="1" as="geometry">
            <mxPoint x="-550" y="679.9999999999998" as="targetPoint" />
          </mxGeometry>
        </mxCell>
        <mxCell id="7iq8bq_ekVzATumu0T5j-40" value="Сервис управления задачами" style="swimlane;whiteSpace=wrap;html=1;startSize=23;fillColor=#647687;fontColor=#ffffff;strokeColor=#314354;" vertex="1" parent="1">
          <mxGeometry x="-630" y="110" width="540" height="470" as="geometry" />
        </mxCell>
        <mxCell id="7iq8bq_ekVzATumu0T5j-53" style="edgeStyle=orthogonalEdgeStyle;rounded=0;orthogonalLoop=1;jettySize=auto;html=1;exitX=1;exitY=0.5;exitDx=0;exitDy=0;entryX=0;entryY=0.5;entryDx=0;entryDy=0;" edge="1" parent="7iq8bq_ekVzATumu0T5j-40" source="7iq8bq_ekVzATumu0T5j-1" target="7iq8bq_ekVzATumu0T5j-7">
          <mxGeometry relative="1" as="geometry" />
        </mxCell>
        <mxCell id="7iq8bq_ekVzATumu0T5j-54" value="has_many" style="edgeLabel;html=1;align=center;verticalAlign=middle;resizable=0;points=[];" vertex="1" connectable="0" parent="7iq8bq_ekVzATumu0T5j-53">
          <mxGeometry x="0.0925" y="2" relative="1" as="geometry">
            <mxPoint as="offset" />
          </mxGeometry>
        </mxCell>
        <mxCell id="7iq8bq_ekVzATumu0T5j-1" value="manager" style="rounded=0;whiteSpace=wrap;html=1;" vertex="1" parent="7iq8bq_ekVzATumu0T5j-40">
          <mxGeometry x="20" y="30" width="120" height="60" as="geometry" />
        </mxCell>
        <mxCell id="7iq8bq_ekVzATumu0T5j-7" value="audit_log" style="rounded=0;whiteSpace=wrap;html=1;" vertex="1" parent="7iq8bq_ekVzATumu0T5j-40">
          <mxGeometry x="330" y="30" width="120" height="60" as="geometry" />
        </mxCell>
        <mxCell id="7iq8bq_ekVzATumu0T5j-51" style="edgeStyle=orthogonalEdgeStyle;rounded=0;orthogonalLoop=1;jettySize=auto;html=1;exitX=0.5;exitY=0;exitDx=0;exitDy=0;entryX=0.5;entryY=1;entryDx=0;entryDy=0;" edge="1" parent="7iq8bq_ekVzATumu0T5j-40" source="7iq8bq_ekVzATumu0T5j-4" target="7iq8bq_ekVzATumu0T5j-7">
          <mxGeometry relative="1" as="geometry" />
        </mxCell>
        <mxCell id="7iq8bq_ekVzATumu0T5j-52" value="has_many" style="edgeLabel;html=1;align=center;verticalAlign=middle;resizable=0;points=[];" vertex="1" connectable="0" parent="7iq8bq_ekVzATumu0T5j-51">
          <mxGeometry x="0.0667" y="2" relative="1" as="geometry">
            <mxPoint as="offset" />
          </mxGeometry>
        </mxCell>
        <mxCell id="7iq8bq_ekVzATumu0T5j-55" style="edgeStyle=orthogonalEdgeStyle;rounded=0;orthogonalLoop=1;jettySize=auto;html=1;exitX=0;exitY=0.5;exitDx=0;exitDy=0;entryX=1;entryY=0.5;entryDx=0;entryDy=0;" edge="1" parent="7iq8bq_ekVzATumu0T5j-40" source="7iq8bq_ekVzATumu0T5j-4" target="7iq8bq_ekVzATumu0T5j-5">
          <mxGeometry relative="1" as="geometry" />
        </mxCell>
        <mxCell id="7iq8bq_ekVzATumu0T5j-56" value="has_one" style="edgeLabel;html=1;align=center;verticalAlign=middle;resizable=0;points=[];" vertex="1" connectable="0" parent="7iq8bq_ekVzATumu0T5j-55">
          <mxGeometry x="-0.0064" relative="1" as="geometry">
            <mxPoint as="offset" />
          </mxGeometry>
        </mxCell>
        <mxCell id="7iq8bq_ekVzATumu0T5j-58" style="edgeStyle=orthogonalEdgeStyle;rounded=0;orthogonalLoop=1;jettySize=auto;html=1;exitX=0.5;exitY=1;exitDx=0;exitDy=0;entryX=0.5;entryY=0;entryDx=0;entryDy=0;" edge="1" parent="7iq8bq_ekVzATumu0T5j-40" source="7iq8bq_ekVzATumu0T5j-4" target="7iq8bq_ekVzATumu0T5j-9">
          <mxGeometry relative="1" as="geometry" />
        </mxCell>
        <mxCell id="7iq8bq_ekVzATumu0T5j-59" value="has_one" style="edgeLabel;html=1;align=center;verticalAlign=middle;resizable=0;points=[];" vertex="1" connectable="0" parent="7iq8bq_ekVzATumu0T5j-58">
          <mxGeometry x="-0.2173" y="-1" relative="1" as="geometry">
            <mxPoint as="offset" />
          </mxGeometry>
        </mxCell>
        <mxCell id="7iq8bq_ekVzATumu0T5j-4" value="task" style="rounded=0;whiteSpace=wrap;html=1;" vertex="1" parent="7iq8bq_ekVzATumu0T5j-40">
          <mxGeometry x="330" y="160" width="120" height="60" as="geometry" />
        </mxCell>
        <mxCell id="7iq8bq_ekVzATumu0T5j-5" value="rating" style="rounded=0;whiteSpace=wrap;html=1;" vertex="1" parent="7iq8bq_ekVzATumu0T5j-40">
          <mxGeometry x="130" y="160" width="120" height="60" as="geometry" />
        </mxCell>
        <mxCell id="7iq8bq_ekVzATumu0T5j-9" value="state&lt;br&gt;&lt;div&gt;(need to improve or not)&lt;/div&gt;" style="rounded=0;whiteSpace=wrap;html=1;" vertex="1" parent="7iq8bq_ekVzATumu0T5j-40">
          <mxGeometry x="315" y="320" width="150" height="60" as="geometry" />
        </mxCell>
        <mxCell id="7iq8bq_ekVzATumu0T5j-42" value="Найм учителей" style="swimlane;whiteSpace=wrap;html=1;fillColor=#647687;fontColor=#ffffff;strokeColor=#314354;" vertex="1" parent="1">
          <mxGeometry y="110" width="440" height="470" as="geometry" />
        </mxCell>
        <mxCell id="7iq8bq_ekVzATumu0T5j-25" value="" style="edgeStyle=orthogonalEdgeStyle;rounded=0;orthogonalLoop=1;jettySize=auto;html=1;" edge="1" parent="7iq8bq_ekVzATumu0T5j-42" source="7iq8bq_ekVzATumu0T5j-2" target="7iq8bq_ekVzATumu0T5j-8">
          <mxGeometry relative="1" as="geometry" />
        </mxCell>
        <mxCell id="7iq8bq_ekVzATumu0T5j-26" value="has_one" style="edgeLabel;html=1;align=center;verticalAlign=middle;resizable=0;points=[];" vertex="1" connectable="0" parent="7iq8bq_ekVzATumu0T5j-25">
          <mxGeometry x="-0.0593" y="-1" relative="1" as="geometry">
            <mxPoint as="offset" />
          </mxGeometry>
        </mxCell>
        <mxCell id="7iq8bq_ekVzATumu0T5j-61" style="edgeStyle=orthogonalEdgeStyle;rounded=0;orthogonalLoop=1;jettySize=auto;html=1;exitX=0.5;exitY=1;exitDx=0;exitDy=0;entryX=0.5;entryY=0;entryDx=0;entryDy=0;" edge="1" parent="7iq8bq_ekVzATumu0T5j-42" source="7iq8bq_ekVzATumu0T5j-2" target="7iq8bq_ekVzATumu0T5j-50">
          <mxGeometry relative="1" as="geometry" />
        </mxCell>
        <mxCell id="7iq8bq_ekVzATumu0T5j-62" value="has_many?" style="edgeLabel;html=1;align=center;verticalAlign=middle;resizable=0;points=[];" vertex="1" connectable="0" parent="7iq8bq_ekVzATumu0T5j-61">
          <mxGeometry x="-0.1007" y="1" relative="1" as="geometry">
            <mxPoint as="offset" />
          </mxGeometry>
        </mxCell>
        <mxCell id="7iq8bq_ekVzATumu0T5j-2" value="candidate" style="rounded=0;whiteSpace=wrap;html=1;" vertex="1" parent="7iq8bq_ekVzATumu0T5j-42">
          <mxGeometry x="20" y="40" width="120" height="60" as="geometry" />
        </mxCell>
        <mxCell id="7iq8bq_ekVzATumu0T5j-50" value="task" style="rounded=0;whiteSpace=wrap;html=1;" vertex="1" parent="7iq8bq_ekVzATumu0T5j-42">
          <mxGeometry x="20" y="160" width="120" height="60" as="geometry" />
        </mxCell>
        <mxCell id="7iq8bq_ekVzATumu0T5j-8" value="passed&lt;div&gt;(already teacher/candidate)&lt;/div&gt;" style="rounded=0;whiteSpace=wrap;html=1;" vertex="1" parent="7iq8bq_ekVzATumu0T5j-42">
          <mxGeometry x="290" y="40" width="120" height="60" as="geometry" />
        </mxCell>
        <mxCell id="7iq8bq_ekVzATumu0T5j-46" value="Расчет бонусов" style="swimlane;horizontal=0;whiteSpace=wrap;html=1;fillColor=#647687;fontColor=#ffffff;strokeColor=#314354;" vertex="1" parent="1">
          <mxGeometry x="-640" y="640" width="560" height="170" as="geometry" />
        </mxCell>
        <mxCell id="7iq8bq_ekVzATumu0T5j-48" style="edgeStyle=orthogonalEdgeStyle;rounded=0;orthogonalLoop=1;jettySize=auto;html=1;exitX=1;exitY=0.5;exitDx=0;exitDy=0;" edge="1" parent="7iq8bq_ekVzATumu0T5j-46" source="7iq8bq_ekVzATumu0T5j-47" target="7iq8bq_ekVzATumu0T5j-45">
          <mxGeometry relative="1" as="geometry" />
        </mxCell>
        <mxCell id="7iq8bq_ekVzATumu0T5j-49" value="has_one" style="edgeLabel;html=1;align=center;verticalAlign=middle;resizable=0;points=[];" vertex="1" connectable="0" parent="7iq8bq_ekVzATumu0T5j-48">
          <mxGeometry x="-0.2735" relative="1" as="geometry">
            <mxPoint as="offset" />
          </mxGeometry>
        </mxCell>
        <mxCell id="7iq8bq_ekVzATumu0T5j-47" value="manager" style="rounded=0;whiteSpace=wrap;html=1;" vertex="1" parent="7iq8bq_ekVzATumu0T5j-46">
          <mxGeometry x="30" y="40" width="120" height="60" as="geometry" />
        </mxCell>
        <mxCell id="7iq8bq_ekVzATumu0T5j-45" value="balance" style="rounded=0;whiteSpace=wrap;html=1;" vertex="1" parent="7iq8bq_ekVzATumu0T5j-46">
          <mxGeometry x="270" y="40" width="120" height="60" as="geometry" />
        </mxCell>
        <mxCell id="7iq8bq_ekVzATumu0T5j-63" style="edgeStyle=orthogonalEdgeStyle;rounded=0;orthogonalLoop=1;jettySize=auto;html=1;exitX=1;exitY=0.5;exitDx=0;exitDy=0;strokeWidth=4;" edge="1" parent="1" source="7iq8bq_ekVzATumu0T5j-4" target="7iq8bq_ekVzATumu0T5j-50">
          <mxGeometry relative="1" as="geometry" />
        </mxCell>
      </root>
    </mxGraphModel>
  </diagram>
</mxfile>
